HIERARCHY
ROOT hip
{
	OFFSET 0.000000 0.000000 0.000000 
	CHANNELS 6 Xposition Yposition Zposition Zrotation Xrotation Yrotation
	JOINT abdomen
	{
		OFFSET 0.000000 3.402643 0.000000 
		CHANNELS 3 Zrotation Xrotation Yrotation
		JOINT chest
		{
			OFFSET 0.000000 8.438565 -0.680529 
			CHANNELS 3 Zrotation Xrotation Yrotation
			JOINT neck
			{
				OFFSET 0.000000 10.207942 -0.272212 
				CHANNELS 3 Zrotation Xrotation Yrotation
				JOINT head
				{
					OFFSET 0.000000 3.130431 0.000000 
					CHANNELS 3 Zrotation Xrotation Yrotation
					End Site
					{
						OFFSET 0.000000 3.130435 0.000000 
					}
				}
			}
			JOINT lCollar
			{
				OFFSET 3.470700 6.669187 -0.816635 
				CHANNELS 3 Zrotation Xrotation Yrotation
				JOINT lShldr
				{
					OFFSET 3.198488 0.000000 0.000000 
					CHANNELS 3 Zrotation Xrotation Yrotation
					JOINT lForeArm
					{
						OFFSET 10.139888 0.000000 0.000000 
						CHANNELS 3 Zrotation Xrotation Yrotation
						JOINT lHand
						{
							OFFSET 8.370511 0.000000 0.000000 
							CHANNELS 3 Zrotation Xrotation Yrotation
							End Site
							{
								OFFSET 4.083176 0.000000 0.000000 
							}
						}
					}
				}
			}
			JOINT rCollar
			{
				OFFSET -3.470700 6.669187 -0.816635 
				CHANNELS 3 Zrotation Xrotation Yrotation
				JOINT rShldr
				{
					OFFSET -3.198488 0.000000 0.000000 
					CHANNELS 3 Zrotation Xrotation Yrotation
					JOINT rForeArm
					{
						OFFSET -10.139888 0.000000 0.000000 
						CHANNELS 3 Zrotation Xrotation Yrotation
						JOINT rHand
						{
							OFFSET -8.370511 0.000000 0.000000 
							CHANNELS 3 Zrotation Xrotation Yrotation
							End Site
							{
								OFFSET -4.083176 0.000000 0.000000 
							}
						}
					}
				}
			}
		}
	}
	JOINT lThigh
	{
		OFFSET 5.308129 -1.633274 1.361059 
		CHANNELS 3 Zrotation Xrotation Yrotation
		JOINT lShin
		{
			OFFSET -2.041588 -20.007561 0.000000 
			CHANNELS 3 Zrotation Xrotation Yrotation
			JOINT lFoot
			{
				OFFSET 0.000000 -19.190928 -1.224953 
				CHANNELS 3 Zrotation Xrotation Yrotation
				End Site
				{
					OFFSET 0.000000 -2.449906 4.627600 
				}
			}
		}
	}
	JOINT rThigh
	{
		OFFSET -5.308129 -1.633274 1.361059 
		CHANNELS 3 Zrotation Xrotation Yrotation
		JOINT rShin
		{
			OFFSET 2.041588 -20.007561 0.000000 
			CHANNELS 3 Zrotation Xrotation Yrotation
			JOINT rFoot
			{
				OFFSET 0.000000 -19.190928 -1.224953 
				CHANNELS 3 Zrotation Xrotation Yrotation
				End Site
				{
					OFFSET 0.000000 -2.449906 4.627600 
				}
			}
		}
	}
}
MOTION
Frames: 11
Frame Time: 0.033333
-0.001381 48.053219 0.313914 -0.166016 0.009760 1.230497 -1.025398 -0.205044 5.543026 -2.636719 -0.029264 2.986933 -0.000000 -0.000004 1.289063 -1.213604 3.797978 8.078238 -5.199613 -0.248127 1.983994 -70.575951 16.060190 9.484719 -9.403782 3.844559 -18.458612 7.106372 -0.494419 -3.184613 5.727255 -0.246749 -2.069691 72.901413 15.725822 -10.626733 8.441255 3.503829 18.627136 -6.356094 -2.274810 4.564718 3.742546 -7.550700 0.904955 -3.012436 15.049648 -0.455121 -0.875435 -7.883456 -0.513010 -4.110044 -7.066292 -0.997989 2.852904 14.663795 0.142553 0.884319 -8.121972 -2.553066 
-0.003471 48.113190 0.347616 -0.371094 0.019535 2.705205 -2.265682 -0.409835 12.337298 -5.849612 -0.058292 6.663950 0.000000 -0.000002 2.861328 -2.685272 8.428368 18.147778 -4.497100 -0.217195 2.015261 -67.687386 16.444044 8.402675 -10.377267 4.129578 -17.722488 8.167662 -0.976742 -2.943617 5.866471 -0.181609 -2.146897 73.049492 15.693968 -11.071979 8.613755 3.523338 17.980721 -6.327935 -5.362982 6.374352 4.027252 -7.498923 0.652084 -3.078183 14.598363 -0.137778 -0.876394 -7.573569 -2.016847 -3.771051 -6.445962 -0.528384 2.872849 13.648279 -0.292661 0.909197 -7.711698 -4.037774 
-0.003993 48.128120 0.356006 -0.537109 0.058572 4.277804 -3.496418 -0.779791 18.926960 -9.013678 -0.077156 10.192836 -0.000000 -0.000003 4.472656 -4.269655 12.992418 28.393244 -3.668347 -0.163704 2.095302 -64.763962 16.821823 7.347269 -11.332186 4.396550 -16.887636 9.050982 -1.465764 -2.688441 6.075239 -0.093300 -2.243200 73.338814 15.634546 -11.657749 9.040991 3.645299 17.213926 -5.805295 -9.036748 8.571614 4.263131 -7.706181 0.782971 -3.128235 14.578330 -0.120510 -1.140983 -7.364130 -3.669678 -3.504911 -6.109042 -0.844496 2.808357 13.233154 -0.016845 0.733188 -7.690446 -5.518224 
0.000000 48.013634 0.291666 -0.595705 0.136691 5.919401 -4.552510 -1.577040 24.122490 -11.621106 -0.086089 12.833861 -0.000000 -0.000002 5.996094 -5.895558 16.751894 37.299515 -2.810083 -0.117070 2.184870 -62.162521 17.123692 6.490021 -12.145682 4.586987 -15.914083 9.962614 -1.969540 -2.425771 6.294565 0.005715 -2.339351 73.627739 15.563582 -12.252728 9.479623 3.767394 16.428005 -4.896323 -13.079441 10.945917 4.373927 -8.662401 0.892951 -3.176907 15.824229 -0.146054 -1.173216 -7.715075 -5.286617 -3.486537 -6.621427 -0.874755 2.852131 14.391086 -0.026615 0.730581 -8.439794 -7.143979 
0.009850 47.702076 0.113339 -0.468756 0.283190 7.599971 -5.299813 -2.907460 27.024429 -13.300786 -0.057020 14.078315 -0.000000 0.000000 7.314455 -7.425004 19.156590 43.581570 -2.030110 -0.068795 2.225163 -60.158878 17.305029 5.964247 -12.686816 4.697109 -14.801455 11.133772 -2.494577 -2.148767 6.454403 0.076173 -2.435678 73.800194 15.525081 -12.758070 9.698185 3.778781 15.703938 -3.826693 -17.270866 13.264014 4.300747 -10.678382 1.152046 -3.331511 18.940962 -0.277001 -1.073454 -8.911863 -6.956490 -3.826608 -8.391366 -0.827479 3.129086 17.862392 -0.194091 0.628306 -10.238263 -8.827353 
0.020506 47.192577 -0.195618 -0.224616 0.468751 9.220590 -5.787642 -4.275052 28.014364 -14.208984 -0.018926 14.165128 0.000000 -0.000004 8.408203 -8.766254 20.210442 47.198418 -1.395483 -0.052813 2.167325 -58.713104 17.371527 5.649066 -12.969831 4.726279 -13.788379 12.805234 -3.088240 -1.911067 6.504914 0.105380 -2.493665 73.712646 15.507750 -13.051432 9.442064 3.633098 15.141725 -2.913826 -21.421972 15.281503 4.099982 -13.665640 1.354776 -3.806707 23.658176 -0.193527 -0.567239 -10.807352 -8.521833 -4.355572 -11.538410 -1.558364 3.427493 23.471304 0.122300 0.403629 -12.813565 -10.322119 
0.025324 46.500977 -0.645694 0.048831 0.654299 10.702573 -6.097789 -5.030119 27.822714 -14.658207 0.037791 13.535278 0.000001 -0.000006 9.316407 -9.820333 20.067677 48.477169 -1.033187 -0.074844 1.982103 -57.709324 17.371351 5.331729 -13.076537 4.717529 -13.135878 15.175677 -3.755005 -1.685209 6.375550 0.050230 -2.513690 73.230400 15.556522 -13.034263 8.460100 3.246887 14.826368 -2.589988 -25.424807 16.678205 3.868140 -17.384155 1.648575 -4.241923 29.462597 -0.168867 -0.126234 -12.998339 -9.840864 -5.161939 -15.322827 -2.113394 3.898449 30.192379 0.064209 0.251972 -15.850731 -11.604834 
0.017655 45.643105 -1.247373 0.292998 0.810515 11.939213 -6.298828 -4.504007 27.178082 -14.931661 0.103797 12.635101 0.000000 -0.000002 10.029299 -10.502067 18.871691 47.755817 -1.011627 -0.155629 1.620849 -57.019531 17.315619 4.838928 -13.064484 4.677667 -13.148553 18.488506 -4.502926 -1.503121 6.026853 -0.097506 -2.486189 72.231293 15.688724 -12.575338 6.522342 2.537005 14.841328 -3.399792 -29.157127 17.089069 3.706092 -21.600746 1.999102 -4.771639 35.803349 -0.122254 0.359322 -15.149252 -10.781035 -6.070450 -19.518616 -2.440187 4.576375 37.225662 -0.153981 0.163420 -18.762815 -12.916519 
-0.009148 44.634804 -2.011144 0.400439 0.888646 12.845421 -6.478801 -2.057101 26.796591 -15.341851 0.160103 11.896813 -0.000000 -0.000002 10.566406 -10.806862 16.775108 45.477581 -1.449960 -0.299180 1.025073 -56.528198 17.226706 3.967298 -13.008423 4.604254 -14.091701 22.954182 -5.352920 -1.357661 5.389519 -0.373301 -2.391723 70.568146 15.905442 -11.582007 3.392727 1.383177 15.231726 -5.999223 -32.529427 16.031006 3.716364 -26.065742 2.380121 -5.404909 42.382923 0.071645 0.980959 -17.325766 -11.364767 -7.077848 -23.789564 -3.189532 5.139155 44.363491 -0.406576 0.191004 -21.600380 -13.504143 
-0.060920 43.491199 -2.927219 0.332070 0.878877 13.344504 -6.755504 2.686321 27.251682 -16.103621 0.206412 11.661152 -0.000000 -0.000002 10.947267 -10.687811 13.904916 42.077488 -2.381140 -0.495995 0.195151 -56.145046 17.112785 2.595451 -12.969117 4.500798 -16.077656 28.581381 -6.271238 -1.182755 4.454948 -0.798498 -2.210230 68.135338 16.229313 -9.971486 -0.998237 -0.330238 15.994415 -10.673748 -35.335342 13.258919 3.993766 -30.609007 2.905145 -6.096407 48.577873 0.343828 1.449935 -18.914139 -11.599545 -7.820240 -28.257160 -4.452939 5.849576 50.923248 -0.526373 -0.164594 -23.624477 -13.730205 
-0.140254 42.224586 -3.904714 0.126964 0.771470 13.513966 -7.169422 9.031578 28.318710 -17.041157 0.233426 11.721939 0.000001 -0.000003 11.171875 -10.148446 10.385486 38.086727 -3.612792 -0.684479 -0.750515 -55.986881 16.990511 0.837331 -12.956520 4.395033 -18.541634 34.407501 -7.145019 -0.704982 3.412363 -1.358420 -1.969623 65.016869 16.577784 -7.919039 -6.211720 -2.485608 16.938030 -15.969060 -37.124092 9.789802 4.560160 -35.111736 3.516519 -6.996103 54.571865 0.959451 2.045153 -20.352859 -11.568215 -8.586450 -32.366409 -5.021584 6.638264 56.966866 -1.109860 0.032165 -25.457098 -13.755904 
